<?xml version="1.0" encoding="utf-8"?>
<!-- Generator: Adobe Illustrator 20.1.0, SVG Export Plug-In . SVG Version: 6.00 Build 0)  -->
<svg version="1.1" id="Layer_1" xmlns="http://www.w3.org/2000/svg" xmlns:xlink="http://www.w3.org/1999/xlink" x="0px" y="0px"
	 viewBox="0 0 25 25" style="enable-background:new 0 0 25 25;" xml:space="preserve">
<style type="text/css">
	.st0{fill:#FFFFFF;}
	.st1{fill:#AAAAAA;}
	.st2{fill:#00CCCC;}
</style>
<g>
	<path class="st0" d="M12.5,24.6c-6.7,0-12.1-5.4-12.1-12.1S5.8,0.4,12.5,0.4s12.1,5.4,12.1,12.1S19.2,24.6,12.5,24.6z"/>
	<path class="st1" d="M12.5,0.8C19,0.8,24.2,6,24.2,12.5S19,24.2,12.5,24.2S0.8,19,0.8,12.5S6,0.8,12.5,0.8 M12.5,0
		C5.6,0,0,5.6,0,12.5S5.6,25,12.5,25S25,19.4,25,12.5S19.4,0,12.5,0L12.5,0z"/>
</g>
<g>
	<circle class="st2" cx="12.5" cy="12.5" r="5.7"/>
</g>
</svg>
